# xmcd CD database file
#
# Track frame offsets:
#	150
#	13814
#	27924
#	42617
#	56118
#	83925
#	102097
#	117179
#	130968
#	144745
#	159345
#	177323
#	196224
#
# Disc length: 2906 seconds
#
# Revision: 1
# Processed by: cddbd v1.4PL0 Copyright (c) Steve Scherf et al.
# Submitted via: CDex 1.51
#
DISCID=b40b580d
DTITLE=Duke Ellington - Le Meilleur
DYEAR=2001
DGENRE=Jazz
TTITLE0=Take the A-Train
TTITLE1=Sophisticated Lady
TTITLE2=Perdido
TTITLE3=Satin Doll
TTITLE4=Flying Home
TTITLE5=Rockin' In Rhythm
TTITLE6=Don't Get Around Much Any More
TTITLE7=Prelude To A Kiss
TTITLE8=Black Beauty
TTITLE9=The Mooche
TTITLE10=Mood Indigo (with Louis Armstrong)
TTITLE11=El Gato
TTITLE12=C-Jam Blues
EXTD=YEAR: 2001
EXTT0=
EXTT1=
EXTT2=
EXTT3=
EXTT4=
EXTT5=
EXTT6=
EXTT7=
EXTT8=
EXTT9=
EXTT10=
EXTT11=
EXTT12=
PLAYORDER=
